<svg xmlns="http://www.w3.org/2000/svg" width="900" height="118" viewBox="0 0 900 118" role="img" aria-label="PLAYER 1 — PROFILE"><title>PLAYER 1 — PROFILE</title><style>@keyframes fin{from{opacity:0}}@keyframes blink{50%{opacity:0}}@keyframes spin{to{transform:rotate(360deg)}}@keyframes spx{0%,100%{opacity:.15}30%{opacity:1}}@keyframes head{0%,100%{opacity:.35}50%{opacity:1}}@keyframes beat{0%,100%{opacity:1}50%{opacity:.55}}@keyframes grow{from{transform:scaleY(0)}}@media (prefers-reduced-motion:reduce){*{animation:none!important}}</style><defs></defs><path d="M333.74 39V31.5H338.24V33H339.74V34.5H338.24V36H335.24V39ZM335.24 34.5H338.18V33H335.24ZM344.42 39V31.5H345.92V37.5H348.92V39ZM353.6 39V33H355.1V31.5H358.1V33H359.6V39H358.1V36H355.1V39ZM355.1 34.5H358.1V33.06H355.1ZM367.28 39V34.5H365.78V33H364.28V31.5H365.78V33H367.28V34.5H368.78V39ZM370.28 33V31.5H371.78V33ZM368.78 34.5V33H370.28V34.5ZM376.46 39V31.5H380.96V33H377.96V34.5H380.96V36H377.96V37.5H380.96V39ZM385.64 39V31.5H390.14V33H391.64V34.5H390.14V37.5H391.64V39H390.14V37.5H388.64V36H387.14V39ZM387.14 34.5H390.08V33H387.14ZM404 39V37.5H405.5V33H404V31.5H407V37.5H408.5V39Z" fill="#eae6e1" fill-opacity="0.8"/><g shape-rendering="crispEdges"><path d="M448 32h4v4h-4z" fill="#eae6e1" fill-opacity="0.9" style="animation:fin 0.5s ease-out both 0.2s"/><path d="M444 28h4v4h-4zM448 28h4v4h-4zM452 28h4v4h-4zM444 32h4v4h-4zM452 32h4v4h-4zM444 36h4v4h-4zM448 36h4v4h-4zM452 36h4v4h-4z" fill="#eae6e1" fill-opacity="0.18" style="animation:fin 0.5s ease-out both 0.32s"/><path d="M448 24h4v4h-4zM440 32h4v4h-4zM456 32h4v4h-4zM448 40h4v4h-4z" fill="#eae6e1" fill-opacity="0.45" style="animation:fin 0.5s ease-out both 0.44s"/><path d="M452 24h4v4h-4zM440 28h4v4h-4zM456 36h4v4h-4zM444 40h4v4h-4z" fill="#eae6e1" fill-opacity="0.7" style="animation:fin 0.5s ease-out both 0.44s"/><path d="M444 24h4v4h-4zM456 28h4v4h-4zM440 36h4v4h-4zM452 40h4v4h-4z" fill="#eae6e1" fill-opacity="1" style="animation:fin 0.5s ease-out both 0.44s"/><path d="M444 20h4v4h-4zM448 20h4v4h-4zM460 28h4v4h-4zM436 32h4v4h-4zM460 32h4v4h-4zM436 36h4v4h-4zM448 44h4v4h-4zM452 44h4v4h-4z" fill="#eae6e1" fill-opacity="0.45" style="animation:fin 0.5s ease-out both 0.56s"/><path d="M452 20h4v4h-4zM436 28h4v4h-4zM460 36h4v4h-4zM444 44h4v4h-4z" fill="#eae6e1" fill-opacity="0.7" style="animation:fin 0.5s ease-out both 0.56s"/><path d="M440 20h4v4h-4zM456 20h4v4h-4zM436 24h4v4h-4zM460 24h4v4h-4zM436 40h4v4h-4zM460 40h4v4h-4zM440 44h4v4h-4zM456 44h4v4h-4z" fill="#eae6e1" fill-opacity="1" style="animation:fin 0.5s ease-out both 0.56s"/><path d="M436 20h4v4h-4zM460 20h4v4h-4zM436 44h4v4h-4zM460 44h4v4h-4z" fill="#eae6e1" fill-opacity="0.65" style="animation:fin 0.5s ease-out both 0.56s"/><path d="M444 16h4v4h-4zM448 16h4v4h-4zM464 28h4v4h-4zM432 32h4v4h-4zM464 32h4v4h-4zM432 36h4v4h-4zM448 48h4v4h-4zM452 48h4v4h-4z" fill="#eae6e1" fill-opacity="0.45" style="animation:fin 0.5s ease-out both 0.68s"/><path d="M452 16h4v4h-4zM432 28h4v4h-4zM464 36h4v4h-4zM444 48h4v4h-4z" fill="#eae6e1" fill-opacity="0.7" style="animation:fin 0.5s ease-out both 0.68s"/><path d="M440 16h4v4h-4zM456 16h4v4h-4zM432 24h4v4h-4zM464 24h4v4h-4zM432 40h4v4h-4zM464 40h4v4h-4zM440 48h4v4h-4zM456 48h4v4h-4z" fill="#eae6e1" fill-opacity="1" style="animation:fin 0.5s ease-out both 0.68s"/><path d="M432 16h4v4h-4zM464 16h4v4h-4zM432 48h4v4h-4zM464 48h4v4h-4z" fill="#eae6e1" fill-opacity="0.4" style="animation:fin 0.5s ease-out both 0.68s"/><path d="M444 12h4v4h-4zM448 12h4v4h-4zM452 12h4v4h-4zM428 28h4v4h-4zM468 28h4v4h-4zM428 32h4v4h-4zM468 32h4v4h-4zM428 36h4v4h-4zM468 36h4v4h-4zM444 52h4v4h-4zM448 52h4v4h-4zM452 52h4v4h-4z" fill="#eae6e1" fill-opacity="1" style="animation:fin 0.5s ease-out both 0.8s"/></g><path d="M491.5 39V31.5H496V33H497.5V34.5H496V36H493V39ZM493 34.5H495.94V33H493ZM502.18 39V31.5H506.68V33H508.18V34.5H506.68V37.5H508.18V39H506.68V37.5H505.18V36H503.68V39ZM503.68 34.5H506.62V33H503.68ZM514.36 39V37.5H512.86V33H514.36V31.5H517.36V33H518.86V37.5H517.36V39ZM514.36 37.44H517.36V33.06H514.36ZM523.54 39V31.5H528.04V33H525.04V34.5H528.04V36H525.04V39ZM532.72 39V31.5H534.22V39ZM538.9 39V31.5H540.4V37.5H543.4V39ZM548.08 39V31.5H552.58V33H549.58V34.5H552.58V36H549.58V37.5H552.58V39Z" fill="#eae6e1" fill-opacity="0.8"/><rect x="449.5" y="76" width="1" height="42" fill="#eae6e1" fill-opacity=".25" style="transform-origin:450px 76px;animation:grow .9s cubic-bezier(.16,1,.3,1) .6s both"/></svg>