<svg xmlns="http://www.w3.org/2000/svg" width="900" height="430" viewBox="0 0 900 430" shape-rendering="crispEdges"><style>.bl{animation:bl 1s steps(1) infinite}@keyframes bl{50%{opacity:0}}.tw{animation:tw 1.6s steps(1) infinite}@keyframes tw{50%{opacity:0}}.on{opacity:0;animation:on .01s forwards}@keyframes on{to{opacity:1}}.bob{animation:bob 1.2s steps(1) infinite}@keyframes bob{50%{transform:translateY(5px)}}.blink{animation:blink 4s steps(1) infinite}@keyframes blink{0%,94%{opacity:1}95%,100%{opacity:0}}</style><rect width="900" height="430" fill="#000"/><defs><pattern id="d1" width="4" height="4" patternUnits="userSpaceOnUse"><rect width="2" height="2" fill="#fff"/><rect x="2" y="2" width="2" height="2" fill="#fff"/></pattern></defs><path d="M16 12h252v4h4v398h-4v4h-252v-4h-4v-398h4z" fill="#fff"/><path d="M16 16h252v398h-252z" fill="#000"/><path d="M22 22h240v2h-240zM22 406h240v2h-240z" fill="#fff"/><rect x="36" y="36" width="212" height="212" fill="url(#d1)"/><rect x="44" y="44" width="196" height="196" fill="#000"/><g class="bob"><path d="M92 50h10v10h-10zM102 50h10v10h-10zM112 50h10v10h-10zM122 50h10v10h-10zM132 50h10v10h-10zM142 50h10v10h-10zM152 50h10v10h-10zM162 50h10v10h-10zM172 50h10v10h-10zM182 50h10v10h-10zM72 60h10v10h-10zM82 60h10v10h-10zM92 60h10v10h-10zM102 60h10v10h-10zM112 60h10v10h-10zM122 60h10v10h-10zM132 60h10v10h-10zM142 60h10v10h-10zM152 60h10v10h-10zM162 60h10v10h-10zM172 60h10v10h-10zM182 60h10v10h-10zM192 60h10v10h-10zM202 60h10v10h-10zM62 70h10v10h-10zM72 70h10v10h-10zM82 70h10v10h-10zM92 70h10v10h-10zM102 70h10v10h-10zM112 70h10v10h-10zM122 70h10v10h-10zM132 70h10v10h-10zM142 70h10v10h-10zM152 70h10v10h-10zM162 70h10v10h-10zM172 70h10v10h-10zM182 70h10v10h-10zM192 70h10v10h-10zM202 70h10v10h-10zM212 70h10v10h-10zM52 80h10v10h-10zM62 80h10v10h-10zM72 80h10v10h-10zM82 80h10v10h-10zM92 80h10v10h-10zM102 80h10v10h-10zM112 80h10v10h-10zM122 80h10v10h-10zM132 80h10v10h-10zM142 80h10v10h-10zM152 80h10v10h-10zM162 80h10v10h-10zM172 80h10v10h-10zM182 80h10v10h-10zM192 80h10v10h-10zM202 80h10v10h-10zM212 80h10v10h-10zM222 80h10v10h-10zM52 90h10v10h-10zM62 90h10v10h-10zM72 90h10v10h-10zM82 90h10v10h-10zM92 90h10v10h-10zM102 90h10v10h-10zM112 90h10v10h-10zM122 90h10v10h-10zM132 90h10v10h-10zM142 90h10v10h-10zM152 90h10v10h-10zM162 90h10v10h-10zM172 90h10v10h-10zM182 90h10v10h-10zM192 90h10v10h-10zM202 90h10v10h-10zM212 90h10v10h-10zM222 90h10v10h-10zM52 100h10v10h-10zM62 100h10v10h-10zM72 100h10v10h-10zM82 100h10v10h-10zM92 100h10v10h-10zM102 100h10v10h-10zM112 100h10v10h-10zM122 100h10v10h-10zM132 100h10v10h-10zM142 100h10v10h-10zM152 100h10v10h-10zM162 100h10v10h-10zM172 100h10v10h-10zM182 100h10v10h-10zM192 100h10v10h-10zM202 100h10v10h-10zM212 100h10v10h-10zM222 100h10v10h-10zM52 110h10v10h-10zM62 110h10v10h-10zM72 110h10v10h-10zM82 110h10v10h-10zM92 110h10v10h-10zM102 110h10v10h-10zM112 110h10v10h-10zM162 110h10v10h-10zM172 110h10v10h-10zM182 110h10v10h-10zM192 110h10v10h-10zM202 110h10v10h-10zM212 110h10v10h-10zM222 110h10v10h-10zM52 120h10v10h-10zM62 120h10v10h-10zM72 120h10v10h-10zM82 120h10v10h-10zM92 120h10v10h-10zM102 120h10v10h-10zM172 120h10v10h-10zM182 120h10v10h-10zM192 120h10v10h-10zM202 120h10v10h-10zM212 120h10v10h-10zM222 120h10v10h-10zM52 130h10v10h-10zM62 130h10v10h-10zM72 130h10v10h-10zM82 130h10v10h-10zM92 130h10v10h-10zM102 130h10v10h-10zM172 130h10v10h-10zM182 130h10v10h-10zM192 130h10v10h-10zM202 130h10v10h-10zM212 130h10v10h-10zM222 130h10v10h-10zM52 140h10v10h-10zM62 140h10v10h-10zM72 140h10v10h-10zM82 140h10v10h-10zM92 140h10v10h-10zM102 140h10v10h-10zM112 140h10v10h-10zM122 140h10v10h-10zM132 140h10v10h-10zM142 140h10v10h-10zM152 140h10v10h-10zM162 140h10v10h-10zM172 140h10v10h-10zM182 140h10v10h-10zM192 140h10v10h-10zM202 140h10v10h-10zM212 140h10v10h-10zM222 140h10v10h-10zM52 150h10v10h-10zM62 150h10v10h-10zM72 150h10v10h-10zM82 150h10v10h-10zM92 150h10v10h-10zM102 150h10v10h-10zM112 150h10v10h-10zM122 150h10v10h-10zM132 150h10v10h-10zM142 150h10v10h-10zM152 150h10v10h-10zM162 150h10v10h-10zM172 150h10v10h-10zM182 150h10v10h-10zM192 150h10v10h-10zM202 150h10v10h-10zM212 150h10v10h-10zM222 150h10v10h-10zM62 160h10v10h-10zM72 160h10v10h-10zM82 160h10v10h-10zM92 160h10v10h-10zM102 160h10v10h-10zM112 160h10v10h-10zM122 160h10v10h-10zM132 160h10v10h-10zM142 160h10v10h-10zM152 160h10v10h-10zM162 160h10v10h-10zM172 160h10v10h-10zM182 160h10v10h-10zM192 160h10v10h-10zM202 160h10v10h-10zM212 160h10v10h-10zM82 170h10v10h-10zM92 170h10v10h-10zM102 170h10v10h-10zM112 170h10v10h-10zM122 170h10v10h-10zM132 170h10v10h-10zM142 170h10v10h-10zM152 170h10v10h-10zM162 170h10v10h-10zM172 170h10v10h-10zM182 170h10v10h-10zM192 170h10v10h-10zM92 180h10v10h-10zM102 180h10v10h-10zM112 180h10v10h-10zM122 180h10v10h-10zM132 180h10v10h-10zM142 180h10v10h-10zM152 180h10v10h-10zM162 180h10v10h-10zM172 180h10v10h-10zM182 180h10v10h-10zM82 190h10v10h-10zM92 190h10v10h-10zM102 190h10v10h-10zM112 190h10v10h-10zM122 190h10v10h-10zM132 190h10v10h-10zM142 190h10v10h-10zM152 190h10v10h-10zM162 190h10v10h-10zM172 190h10v10h-10zM182 190h10v10h-10zM192 190h10v10h-10zM72 200h10v10h-10zM82 200h10v10h-10zM92 200h10v10h-10zM102 200h10v10h-10zM112 200h10v10h-10zM122 200h10v10h-10zM132 200h10v10h-10zM142 200h10v10h-10zM152 200h10v10h-10zM162 200h10v10h-10zM172 200h10v10h-10zM182 200h10v10h-10zM192 200h10v10h-10zM202 200h10v10h-10zM72 210h10v10h-10zM82 210h10v10h-10zM92 210h10v10h-10zM102 210h10v10h-10zM112 210h10v10h-10zM122 210h10v10h-10zM132 210h10v10h-10zM142 210h10v10h-10zM152 210h10v10h-10zM162 210h10v10h-10zM172 210h10v10h-10zM182 210h10v10h-10zM192 210h10v10h-10zM202 210h10v10h-10zM72 220h10v10h-10zM82 220h10v10h-10zM92 220h10v10h-10zM182 220h10v10h-10zM192 220h10v10h-10zM202 220h10v10h-10z" fill="#000"/><path d="M102 60h10v10h-10zM112 60h10v10h-10zM122 60h10v10h-10zM132 60h10v10h-10zM142 60h10v10h-10zM152 60h10v10h-10zM162 60h10v10h-10zM172 60h10v10h-10zM82 70h10v10h-10zM92 70h10v10h-10zM102 70h10v10h-10zM112 70h10v10h-10zM122 70h10v10h-10zM132 70h10v10h-10zM142 70h10v10h-10zM152 70h10v10h-10zM162 70h10v10h-10zM172 70h10v10h-10zM182 70h10v10h-10zM192 70h10v10h-10zM72 80h10v10h-10zM82 80h10v10h-10zM92 80h10v10h-10zM102 80h10v10h-10zM112 80h10v10h-10zM122 80h10v10h-10zM132 80h10v10h-10zM142 80h10v10h-10zM152 80h10v10h-10zM162 80h10v10h-10zM172 80h10v10h-10zM182 80h10v10h-10zM192 80h10v10h-10zM202 80h10v10h-10zM62 90h10v10h-10zM82 90h10v10h-10zM92 90h10v10h-10zM102 90h10v10h-10zM112 90h10v10h-10zM122 90h10v10h-10zM132 90h10v10h-10zM142 90h10v10h-10zM152 90h10v10h-10zM162 90h10v10h-10zM172 90h10v10h-10zM182 90h10v10h-10zM192 90h10v10h-10zM212 90h10v10h-10zM62 100h10v10h-10zM72 100h10v10h-10zM92 100h10v10h-10zM102 100h10v10h-10zM172 100h10v10h-10zM182 100h10v10h-10zM202 100h10v10h-10zM212 100h10v10h-10zM62 110h10v10h-10zM72 110h10v10h-10zM92 110h10v10h-10zM182 110h10v10h-10zM202 110h10v10h-10zM212 110h10v10h-10zM62 120h10v10h-10zM72 120h10v10h-10zM92 120h10v10h-10zM182 120h10v10h-10zM202 120h10v10h-10zM212 120h10v10h-10zM62 130h10v10h-10zM72 130h10v10h-10zM92 130h10v10h-10zM182 130h10v10h-10zM202 130h10v10h-10zM212 130h10v10h-10zM62 140h10v10h-10zM72 140h10v10h-10zM92 140h10v10h-10zM182 140h10v10h-10zM202 140h10v10h-10zM212 140h10v10h-10zM72 150h10v10h-10zM92 150h10v10h-10zM122 150h10v10h-10zM132 150h10v10h-10zM142 150h10v10h-10zM152 150h10v10h-10zM182 150h10v10h-10zM202 150h10v10h-10zM92 160h10v10h-10zM182 160h10v10h-10zM102 170h10v10h-10zM172 170h10v10h-10zM112 180h10v10h-10zM122 180h10v10h-10zM132 180h10v10h-10zM142 180h10v10h-10zM152 180h10v10h-10zM162 180h10v10h-10zM122 190h10v10h-10zM152 190h10v10h-10zM92 200h10v10h-10zM102 200h10v10h-10zM112 200h10v10h-10zM122 200h10v10h-10zM132 200h10v10h-10zM142 200h10v10h-10zM152 200h10v10h-10zM162 200h10v10h-10zM172 200h10v10h-10zM182 200h10v10h-10zM82 210h10v10h-10zM192 210h10v10h-10z" fill="#fff"/><path class="blink" d="M112 120h10v10h-10zM122 120h10v10h-10zM152 120h10v10h-10zM162 120h10v10h-10z" fill="#fff"/><path d="M112 130h10v10h-10zM122 130h10v10h-10zM152 130h10v10h-10zM162 130h10v10h-10z" fill="#fff"/></g><rect x="36" y="36" width="44" height="30" fill="#fff"/><path d="M44 43h3v3h-3zM47 43h3v3h-3zM50 43h3v3h-3zM53 43h3v3h-3zM44 46h3v3h-3zM56 46h3v3h-3zM44 49h3v3h-3zM56 49h3v3h-3zM44 52h3v3h-3zM47 52h3v3h-3zM50 52h3v3h-3zM53 52h3v3h-3zM44 55h3v3h-3zM44 58h3v3h-3zM44 61h3v3h-3zM68 43h3v3h-3zM65 46h3v3h-3zM68 46h3v3h-3zM68 49h3v3h-3zM68 52h3v3h-3zM68 55h3v3h-3zM68 58h3v3h-3zM65 61h3v3h-3zM68 61h3v3h-3zM71 61h3v3h-3z" fill="#000"/><path d="M84 272h4v4h-4zM100 272h4v4h-4zM84 276h4v4h-4zM96 276h4v4h-4zM84 280h4v4h-4zM92 280h4v4h-4zM84 284h4v4h-4zM88 284h4v4h-4zM84 288h4v4h-4zM92 288h4v4h-4zM84 292h4v4h-4zM96 292h4v4h-4zM84 296h4v4h-4zM100 296h4v4h-4zM108 272h4v4h-4zM112 272h4v4h-4zM116 272h4v4h-4zM120 272h4v4h-4zM124 272h4v4h-4zM108 276h4v4h-4zM108 280h4v4h-4zM108 284h4v4h-4zM112 284h4v4h-4zM116 284h4v4h-4zM120 284h4v4h-4zM108 288h4v4h-4zM108 292h4v4h-4zM108 296h4v4h-4zM112 296h4v4h-4zM116 296h4v4h-4zM120 296h4v4h-4zM124 296h4v4h-4zM132 272h4v4h-4zM148 272h4v4h-4zM132 276h4v4h-4zM148 276h4v4h-4zM132 280h4v4h-4zM148 280h4v4h-4zM132 284h4v4h-4zM148 284h4v4h-4zM132 288h4v4h-4zM148 288h4v4h-4zM136 292h4v4h-4zM144 292h4v4h-4zM140 296h4v4h-4zM156 272h4v4h-4zM160 272h4v4h-4zM164 272h4v4h-4zM168 272h4v4h-4zM172 272h4v4h-4zM164 276h4v4h-4zM164 280h4v4h-4zM164 284h4v4h-4zM164 288h4v4h-4zM164 292h4v4h-4zM156 296h4v4h-4zM160 296h4v4h-4zM164 296h4v4h-4zM168 296h4v4h-4zM172 296h4v4h-4zM180 272h4v4h-4zM196 272h4v4h-4zM180 276h4v4h-4zM184 276h4v4h-4zM196 276h4v4h-4zM180 280h4v4h-4zM188 280h4v4h-4zM196 280h4v4h-4zM180 284h4v4h-4zM192 284h4v4h-4zM196 284h4v4h-4zM180 288h4v4h-4zM196 288h4v4h-4zM180 292h4v4h-4zM196 292h4v4h-4zM180 296h4v4h-4zM196 296h4v4h-4z" fill="#fff"/><path d="M40 330h2v2h-2zM42 330h2v2h-2zM44 330h2v2h-2zM46 330h2v2h-2zM48 330h2v2h-2zM44 332h2v2h-2zM44 334h2v2h-2zM44 336h2v2h-2zM44 338h2v2h-2zM44 340h2v2h-2zM44 342h2v2h-2zM52 330h2v2h-2zM60 330h2v2h-2zM52 332h2v2h-2zM60 332h2v2h-2zM54 334h2v2h-2zM58 334h2v2h-2zM56 336h2v2h-2zM56 338h2v2h-2zM56 340h2v2h-2zM56 342h2v2h-2zM64 330h2v2h-2zM66 330h2v2h-2zM68 330h2v2h-2zM70 330h2v2h-2zM64 332h2v2h-2zM72 332h2v2h-2zM64 334h2v2h-2zM72 334h2v2h-2zM64 336h2v2h-2zM66 336h2v2h-2zM68 336h2v2h-2zM70 336h2v2h-2zM64 338h2v2h-2zM64 340h2v2h-2zM64 342h2v2h-2zM76 330h2v2h-2zM78 330h2v2h-2zM80 330h2v2h-2zM82 330h2v2h-2zM84 330h2v2h-2zM76 332h2v2h-2zM76 334h2v2h-2zM76 336h2v2h-2zM78 336h2v2h-2zM80 336h2v2h-2zM82 336h2v2h-2zM76 338h2v2h-2zM76 340h2v2h-2zM76 342h2v2h-2zM78 342h2v2h-2zM80 342h2v2h-2zM82 342h2v2h-2zM84 342h2v2h-2z" fill="#fff"/><path d="M186 330h2v2h-2zM194 330h2v2h-2zM186 332h2v2h-2zM194 332h2v2h-2zM186 334h2v2h-2zM194 334h2v2h-2zM186 336h2v2h-2zM188 336h2v2h-2zM190 336h2v2h-2zM192 336h2v2h-2zM194 336h2v2h-2zM186 338h2v2h-2zM194 338h2v2h-2zM186 340h2v2h-2zM194 340h2v2h-2zM186 342h2v2h-2zM194 342h2v2h-2zM198 330h2v2h-2zM206 330h2v2h-2zM198 332h2v2h-2zM206 332h2v2h-2zM198 334h2v2h-2zM206 334h2v2h-2zM198 336h2v2h-2zM206 336h2v2h-2zM198 338h2v2h-2zM206 338h2v2h-2zM198 340h2v2h-2zM206 340h2v2h-2zM200 342h2v2h-2zM202 342h2v2h-2zM204 342h2v2h-2zM210 330h2v2h-2zM218 330h2v2h-2zM210 332h2v2h-2zM212 332h2v2h-2zM216 332h2v2h-2zM218 332h2v2h-2zM210 334h2v2h-2zM214 334h2v2h-2zM218 334h2v2h-2zM210 336h2v2h-2zM214 336h2v2h-2zM218 336h2v2h-2zM210 338h2v2h-2zM218 338h2v2h-2zM210 340h2v2h-2zM218 340h2v2h-2zM210 342h2v2h-2zM218 342h2v2h-2zM224 330h2v2h-2zM226 330h2v2h-2zM228 330h2v2h-2zM222 332h2v2h-2zM230 332h2v2h-2zM222 334h2v2h-2zM230 334h2v2h-2zM222 336h2v2h-2zM224 336h2v2h-2zM226 336h2v2h-2zM228 336h2v2h-2zM230 336h2v2h-2zM222 338h2v2h-2zM230 338h2v2h-2zM222 340h2v2h-2zM230 340h2v2h-2zM222 342h2v2h-2zM230 342h2v2h-2zM234 330h2v2h-2zM242 330h2v2h-2zM234 332h2v2h-2zM236 332h2v2h-2zM242 332h2v2h-2zM234 334h2v2h-2zM238 334h2v2h-2zM242 334h2v2h-2zM234 336h2v2h-2zM240 336h2v2h-2zM242 336h2v2h-2zM234 338h2v2h-2zM242 338h2v2h-2zM234 340h2v2h-2zM242 340h2v2h-2zM234 342h2v2h-2zM242 342h2v2h-2z" fill="#fff"/><path d="M40 354h2v2h-2zM48 354h2v2h-2zM40 356h2v2h-2zM42 356h2v2h-2zM46 356h2v2h-2zM48 356h2v2h-2zM40 358h2v2h-2zM44 358h2v2h-2zM48 358h2v2h-2zM40 360h2v2h-2zM44 360h2v2h-2zM48 360h2v2h-2zM40 362h2v2h-2zM48 362h2v2h-2zM40 364h2v2h-2zM48 364h2v2h-2zM40 366h2v2h-2zM48 366h2v2h-2zM54 354h2v2h-2zM56 354h2v2h-2zM58 354h2v2h-2zM52 356h2v2h-2zM60 356h2v2h-2zM52 358h2v2h-2zM60 358h2v2h-2zM52 360h2v2h-2zM60 360h2v2h-2zM52 362h2v2h-2zM60 362h2v2h-2zM52 364h2v2h-2zM60 364h2v2h-2zM54 366h2v2h-2zM56 366h2v2h-2zM58 366h2v2h-2zM64 354h2v2h-2zM66 354h2v2h-2zM68 354h2v2h-2zM70 354h2v2h-2zM64 356h2v2h-2zM72 356h2v2h-2zM64 358h2v2h-2zM72 358h2v2h-2zM64 360h2v2h-2zM72 360h2v2h-2zM64 362h2v2h-2zM72 362h2v2h-2zM64 364h2v2h-2zM72 364h2v2h-2zM64 366h2v2h-2zM66 366h2v2h-2zM68 366h2v2h-2zM70 366h2v2h-2zM76 354h2v2h-2zM78 354h2v2h-2zM80 354h2v2h-2zM82 354h2v2h-2zM84 354h2v2h-2zM76 356h2v2h-2zM76 358h2v2h-2zM76 360h2v2h-2zM78 360h2v2h-2zM80 360h2v2h-2zM82 360h2v2h-2zM76 362h2v2h-2zM76 364h2v2h-2zM76 366h2v2h-2zM78 366h2v2h-2zM80 366h2v2h-2zM82 366h2v2h-2zM84 366h2v2h-2z" fill="#fff"/><path d="M188 354h2v2h-2zM190 354h2v2h-2zM192 354h2v2h-2zM186 356h2v2h-2zM194 356h2v2h-2zM186 358h2v2h-2zM186 360h2v2h-2zM186 362h2v2h-2zM186 364h2v2h-2zM194 364h2v2h-2zM188 366h2v2h-2zM190 366h2v2h-2zM192 366h2v2h-2zM200 354h2v2h-2zM202 354h2v2h-2zM204 354h2v2h-2zM198 356h2v2h-2zM206 356h2v2h-2zM198 358h2v2h-2zM206 358h2v2h-2zM198 360h2v2h-2zM206 360h2v2h-2zM198 362h2v2h-2zM206 362h2v2h-2zM198 364h2v2h-2zM206 364h2v2h-2zM200 366h2v2h-2zM202 366h2v2h-2zM204 366h2v2h-2zM212 360h2v2h-2zM214 360h2v2h-2zM216 360h2v2h-2zM224 354h2v2h-2zM226 354h2v2h-2zM228 354h2v2h-2zM222 356h2v2h-2zM230 356h2v2h-2zM222 358h2v2h-2zM230 358h2v2h-2zM222 360h2v2h-2zM230 360h2v2h-2zM222 362h2v2h-2zM230 362h2v2h-2zM222 364h2v2h-2zM230 364h2v2h-2zM224 366h2v2h-2zM226 366h2v2h-2zM228 366h2v2h-2zM234 354h2v2h-2zM236 354h2v2h-2zM238 354h2v2h-2zM240 354h2v2h-2zM234 356h2v2h-2zM242 356h2v2h-2zM234 358h2v2h-2zM242 358h2v2h-2zM234 360h2v2h-2zM236 360h2v2h-2zM238 360h2v2h-2zM240 360h2v2h-2zM234 362h2v2h-2zM234 364h2v2h-2zM234 366h2v2h-2z" fill="#fff"/><path d="M304 12h580v4h4v398h-4v4h-580v-4h-4v-398h4z" fill="#fff"/><path d="M304 16h580v398h-580z" fill="#000"/><path d="M310 22h568v2h-568zM310 406h568v2h-568z" fill="#fff"/><path d="M331 36h3v3h-3zM334 36h3v3h-3zM337 36h3v3h-3zM328 39h3v3h-3zM340 39h3v3h-3zM328 42h3v3h-3zM328 45h3v3h-3zM328 48h3v3h-3zM328 51h3v3h-3zM340 51h3v3h-3zM331 54h3v3h-3zM334 54h3v3h-3zM337 54h3v3h-3zM346 36h3v3h-3zM346 39h3v3h-3zM346 42h3v3h-3zM346 45h3v3h-3zM346 48h3v3h-3zM346 51h3v3h-3zM346 54h3v3h-3zM349 54h3v3h-3zM352 54h3v3h-3zM355 54h3v3h-3zM358 54h3v3h-3zM367 36h3v3h-3zM370 36h3v3h-3zM373 36h3v3h-3zM364 39h3v3h-3zM376 39h3v3h-3zM364 42h3v3h-3zM376 42h3v3h-3zM364 45h3v3h-3zM367 45h3v3h-3zM370 45h3v3h-3zM373 45h3v3h-3zM376 45h3v3h-3zM364 48h3v3h-3zM376 48h3v3h-3zM364 51h3v3h-3zM376 51h3v3h-3zM364 54h3v3h-3zM376 54h3v3h-3zM385 36h3v3h-3zM388 36h3v3h-3zM391 36h3v3h-3zM394 36h3v3h-3zM382 39h3v3h-3zM382 42h3v3h-3zM385 45h3v3h-3zM388 45h3v3h-3zM391 45h3v3h-3zM394 48h3v3h-3zM394 51h3v3h-3zM382 54h3v3h-3zM385 54h3v3h-3zM388 54h3v3h-3zM391 54h3v3h-3zM403 36h3v3h-3zM406 36h3v3h-3zM409 36h3v3h-3zM412 36h3v3h-3zM400 39h3v3h-3zM400 42h3v3h-3zM403 45h3v3h-3zM406 45h3v3h-3zM409 45h3v3h-3zM412 48h3v3h-3zM412 51h3v3h-3zM400 54h3v3h-3zM403 54h3v3h-3zM406 54h3v3h-3zM409 54h3v3h-3z" fill="url(#d1)"/><path d="M439 36h3v3h-3zM451 36h3v3h-3zM439 39h3v3h-3zM451 39h3v3h-3zM439 42h3v3h-3zM451 42h3v3h-3zM439 45h3v3h-3zM445 45h3v3h-3zM451 45h3v3h-3zM439 48h3v3h-3zM445 48h3v3h-3zM451 48h3v3h-3zM439 51h3v3h-3zM442 51h3v3h-3zM448 51h3v3h-3zM451 51h3v3h-3zM439 54h3v3h-3zM451 54h3v3h-3zM457 36h3v3h-3zM460 36h3v3h-3zM463 36h3v3h-3zM466 36h3v3h-3zM469 36h3v3h-3zM457 39h3v3h-3zM457 42h3v3h-3zM457 45h3v3h-3zM460 45h3v3h-3zM463 45h3v3h-3zM466 45h3v3h-3zM457 48h3v3h-3zM457 51h3v3h-3zM457 54h3v3h-3zM460 54h3v3h-3zM463 54h3v3h-3zM466 54h3v3h-3zM469 54h3v3h-3zM475 36h3v3h-3zM478 36h3v3h-3zM481 36h3v3h-3zM484 36h3v3h-3zM475 39h3v3h-3zM487 39h3v3h-3zM475 42h3v3h-3zM487 42h3v3h-3zM475 45h3v3h-3zM478 45h3v3h-3zM481 45h3v3h-3zM484 45h3v3h-3zM475 48h3v3h-3zM487 48h3v3h-3zM475 51h3v3h-3zM487 51h3v3h-3zM475 54h3v3h-3zM478 54h3v3h-3zM481 54h3v3h-3zM484 54h3v3h-3zM511 36h3v3h-3zM514 36h3v3h-3zM517 36h3v3h-3zM520 36h3v3h-3zM511 39h3v3h-3zM523 39h3v3h-3zM511 42h3v3h-3zM523 42h3v3h-3zM511 45h3v3h-3zM523 45h3v3h-3zM511 48h3v3h-3zM523 48h3v3h-3zM511 51h3v3h-3zM523 51h3v3h-3zM511 54h3v3h-3zM514 54h3v3h-3zM517 54h3v3h-3zM520 54h3v3h-3zM529 36h3v3h-3zM532 36h3v3h-3zM535 36h3v3h-3zM538 36h3v3h-3zM541 36h3v3h-3zM529 39h3v3h-3zM529 42h3v3h-3zM529 45h3v3h-3zM532 45h3v3h-3zM535 45h3v3h-3zM538 45h3v3h-3zM529 48h3v3h-3zM529 51h3v3h-3zM529 54h3v3h-3zM532 54h3v3h-3zM535 54h3v3h-3zM538 54h3v3h-3zM541 54h3v3h-3zM547 36h3v3h-3zM559 36h3v3h-3zM547 39h3v3h-3zM559 39h3v3h-3zM547 42h3v3h-3zM559 42h3v3h-3zM547 45h3v3h-3zM559 45h3v3h-3zM547 48h3v3h-3zM559 48h3v3h-3zM550 51h3v3h-3zM556 51h3v3h-3zM553 54h3v3h-3zM565 36h3v3h-3zM568 36h3v3h-3zM571 36h3v3h-3zM574 36h3v3h-3zM577 36h3v3h-3zM565 39h3v3h-3zM565 42h3v3h-3zM565 45h3v3h-3zM568 45h3v3h-3zM571 45h3v3h-3zM574 45h3v3h-3zM565 48h3v3h-3zM565 51h3v3h-3zM565 54h3v3h-3zM568 54h3v3h-3zM571 54h3v3h-3zM574 54h3v3h-3zM577 54h3v3h-3zM583 36h3v3h-3zM583 39h3v3h-3zM583 42h3v3h-3zM583 45h3v3h-3zM583 48h3v3h-3zM583 51h3v3h-3zM583 54h3v3h-3zM586 54h3v3h-3zM589 54h3v3h-3zM592 54h3v3h-3zM595 54h3v3h-3zM604 36h3v3h-3zM607 36h3v3h-3zM610 36h3v3h-3zM601 39h3v3h-3zM613 39h3v3h-3zM601 42h3v3h-3zM613 42h3v3h-3zM601 45h3v3h-3zM613 45h3v3h-3zM601 48h3v3h-3zM613 48h3v3h-3zM601 51h3v3h-3zM613 51h3v3h-3zM604 54h3v3h-3zM607 54h3v3h-3zM610 54h3v3h-3zM619 36h3v3h-3zM622 36h3v3h-3zM625 36h3v3h-3zM628 36h3v3h-3zM619 39h3v3h-3zM631 39h3v3h-3zM619 42h3v3h-3zM631 42h3v3h-3zM619 45h3v3h-3zM622 45h3v3h-3zM625 45h3v3h-3zM628 45h3v3h-3zM619 48h3v3h-3zM619 51h3v3h-3zM619 54h3v3h-3zM637 36h3v3h-3zM640 36h3v3h-3zM643 36h3v3h-3zM646 36h3v3h-3zM649 36h3v3h-3zM637 39h3v3h-3zM637 42h3v3h-3zM637 45h3v3h-3zM640 45h3v3h-3zM643 45h3v3h-3zM646 45h3v3h-3zM637 48h3v3h-3zM637 51h3v3h-3zM637 54h3v3h-3zM640 54h3v3h-3zM643 54h3v3h-3zM646 54h3v3h-3zM649 54h3v3h-3zM655 36h3v3h-3zM658 36h3v3h-3zM661 36h3v3h-3zM664 36h3v3h-3zM655 39h3v3h-3zM667 39h3v3h-3zM655 42h3v3h-3zM667 42h3v3h-3zM655 45h3v3h-3zM658 45h3v3h-3zM661 45h3v3h-3zM664 45h3v3h-3zM655 48h3v3h-3zM661 48h3v3h-3zM655 51h3v3h-3zM664 51h3v3h-3zM655 54h3v3h-3zM667 54h3v3h-3z" fill="#fff"/><rect x="757" y="30" width="103" height="33" fill="#fff"/><path d="M765 36h3v3h-3zM765 39h3v3h-3zM765 42h3v3h-3zM765 45h3v3h-3zM765 48h3v3h-3zM765 51h3v3h-3zM765 54h3v3h-3zM768 54h3v3h-3zM771 54h3v3h-3zM774 54h3v3h-3zM777 54h3v3h-3zM783 36h3v3h-3zM795 36h3v3h-3zM783 39h3v3h-3zM795 39h3v3h-3zM783 42h3v3h-3zM795 42h3v3h-3zM783 45h3v3h-3zM795 45h3v3h-3zM783 48h3v3h-3zM795 48h3v3h-3zM786 51h3v3h-3zM792 51h3v3h-3zM789 54h3v3h-3zM807 54h3v3h-3zM822 36h3v3h-3zM825 36h3v3h-3zM828 36h3v3h-3zM819 39h3v3h-3zM831 39h3v3h-3zM819 42h3v3h-3zM828 42h3v3h-3zM831 42h3v3h-3zM819 45h3v3h-3zM825 45h3v3h-3zM831 45h3v3h-3zM819 48h3v3h-3zM822 48h3v3h-3zM831 48h3v3h-3zM819 51h3v3h-3zM831 51h3v3h-3zM822 54h3v3h-3zM825 54h3v3h-3zM828 54h3v3h-3zM837 36h3v3h-3zM840 36h3v3h-3zM843 36h3v3h-3zM846 36h3v3h-3zM849 36h3v3h-3zM849 39h3v3h-3zM846 42h3v3h-3zM843 45h3v3h-3zM840 48h3v3h-3zM840 51h3v3h-3zM840 54h3v3h-3z" fill="#000"/><path d="M328 78h2v2h-2zM336 78h2v2h-2zM328 80h2v2h-2zM336 80h2v2h-2zM328 82h2v2h-2zM336 82h2v2h-2zM328 84h2v2h-2zM330 84h2v2h-2zM332 84h2v2h-2zM334 84h2v2h-2zM336 84h2v2h-2zM328 86h2v2h-2zM336 86h2v2h-2zM328 88h2v2h-2zM336 88h2v2h-2zM328 90h2v2h-2zM336 90h2v2h-2zM340 78h2v2h-2zM342 78h2v2h-2zM344 78h2v2h-2zM346 78h2v2h-2zM340 80h2v2h-2zM348 80h2v2h-2zM340 82h2v2h-2zM348 82h2v2h-2zM340 84h2v2h-2zM342 84h2v2h-2zM344 84h2v2h-2zM346 84h2v2h-2zM340 86h2v2h-2zM340 88h2v2h-2zM340 90h2v2h-2z" fill="#fff"/><path d="M364 75h484v20h-484zM366 77v16h480v-16z" fill="#fff" fill-rule="evenodd"/><rect x="368" y="79" width="476" height="12" fill="#fff"/><path d="M328 104h2v2h-2zM336 104h2v2h-2zM328 106h2v2h-2zM336 106h2v2h-2zM330 108h2v2h-2zM334 108h2v2h-2zM332 110h2v2h-2zM330 112h2v2h-2zM334 112h2v2h-2zM328 114h2v2h-2zM336 114h2v2h-2zM328 116h2v2h-2zM336 116h2v2h-2zM340 104h2v2h-2zM342 104h2v2h-2zM344 104h2v2h-2zM346 104h2v2h-2zM340 106h2v2h-2zM348 106h2v2h-2zM340 108h2v2h-2zM348 108h2v2h-2zM340 110h2v2h-2zM342 110h2v2h-2zM344 110h2v2h-2zM346 110h2v2h-2zM340 112h2v2h-2zM340 114h2v2h-2zM340 116h2v2h-2z" fill="#fff"/><path d="M364 101h484v20h-484zM366 103v16h480v-16z" fill="#fff" fill-rule="evenodd"/><rect x="368" y="105" width="0" height="12" fill="url(#d1)"><animate attributeName="width" values="0;333" dur="2s" begin=".3s" fill="freeze" calcMode="discrete" keyTimes="0;1"/><animate attributeName="width" from="0" to="333" dur="1.6s" begin=".3s" fill="freeze"/></rect><rect x="328" y="132" width="532" height="2" fill="url(#d1)"/><path d="M328 150h3v3h-3zM331 150h3v3h-3zM334 150h3v3h-3zM337 150h3v3h-3zM340 150h3v3h-3zM328 153h3v3h-3zM328 156h3v3h-3zM328 159h3v3h-3zM331 159h3v3h-3zM334 159h3v3h-3zM337 159h3v3h-3zM328 162h3v3h-3zM328 165h3v3h-3zM328 168h3v3h-3zM346 150h3v3h-3zM349 150h3v3h-3zM352 150h3v3h-3zM355 150h3v3h-3zM346 153h3v3h-3zM358 153h3v3h-3zM346 156h3v3h-3zM358 156h3v3h-3zM346 159h3v3h-3zM349 159h3v3h-3zM352 159h3v3h-3zM355 159h3v3h-3zM346 162h3v3h-3zM352 162h3v3h-3zM346 165h3v3h-3zM355 165h3v3h-3zM346 168h3v3h-3zM358 168h3v3h-3zM367 150h3v3h-3zM370 150h3v3h-3zM373 150h3v3h-3zM364 153h3v3h-3zM376 153h3v3h-3zM364 156h3v3h-3zM376 156h3v3h-3zM364 159h3v3h-3zM376 159h3v3h-3zM364 162h3v3h-3zM376 162h3v3h-3zM364 165h3v3h-3zM376 165h3v3h-3zM367 168h3v3h-3zM370 168h3v3h-3zM373 168h3v3h-3zM382 150h3v3h-3zM394 150h3v3h-3zM382 153h3v3h-3zM385 153h3v3h-3zM394 153h3v3h-3zM382 156h3v3h-3zM388 156h3v3h-3zM394 156h3v3h-3zM382 159h3v3h-3zM391 159h3v3h-3zM394 159h3v3h-3zM382 162h3v3h-3zM394 162h3v3h-3zM382 165h3v3h-3zM394 165h3v3h-3zM382 168h3v3h-3zM394 168h3v3h-3zM400 150h3v3h-3zM403 150h3v3h-3zM406 150h3v3h-3zM409 150h3v3h-3zM412 150h3v3h-3zM406 153h3v3h-3zM406 156h3v3h-3zM406 159h3v3h-3zM406 162h3v3h-3zM406 165h3v3h-3zM406 168h3v3h-3zM418 150h3v3h-3zM421 150h3v3h-3zM424 150h3v3h-3zM427 150h3v3h-3zM430 150h3v3h-3zM418 153h3v3h-3zM418 156h3v3h-3zM418 159h3v3h-3zM421 159h3v3h-3zM424 159h3v3h-3zM427 159h3v3h-3zM418 162h3v3h-3zM418 165h3v3h-3zM418 168h3v3h-3zM421 168h3v3h-3zM424 168h3v3h-3zM427 168h3v3h-3zM430 168h3v3h-3zM436 150h3v3h-3zM448 150h3v3h-3zM436 153h3v3h-3zM439 153h3v3h-3zM448 153h3v3h-3zM436 156h3v3h-3zM442 156h3v3h-3zM448 156h3v3h-3zM436 159h3v3h-3zM445 159h3v3h-3zM448 159h3v3h-3zM436 162h3v3h-3zM448 162h3v3h-3zM436 165h3v3h-3zM448 165h3v3h-3zM436 168h3v3h-3zM448 168h3v3h-3zM454 150h3v3h-3zM457 150h3v3h-3zM460 150h3v3h-3zM463 150h3v3h-3zM454 153h3v3h-3zM466 153h3v3h-3zM454 156h3v3h-3zM466 156h3v3h-3zM454 159h3v3h-3zM466 159h3v3h-3zM454 162h3v3h-3zM466 162h3v3h-3zM454 165h3v3h-3zM466 165h3v3h-3zM454 168h3v3h-3zM457 168h3v3h-3zM460 168h3v3h-3zM463 168h3v3h-3z" fill="#fff"/><rect x="530" y="149" width="20" height="23" fill="#fff"/><rect x="533" y="152" width="14" height="17" fill="#000"/><rect class="on" style="animation-delay:0.40s" x="533" y="152" width="14" height="17" fill="#fff"/><rect x="556" y="149" width="20" height="23" fill="#fff"/><rect x="559" y="152" width="14" height="17" fill="#000"/><rect class="on" style="animation-delay:0.47s" x="559" y="152" width="14" height="17" fill="#fff"/><rect x="582" y="149" width="20" height="23" fill="#fff"/><rect x="585" y="152" width="14" height="17" fill="#000"/><rect class="on" style="animation-delay:0.54s" x="585" y="152" width="14" height="17" fill="#fff"/><rect x="608" y="149" width="20" height="23" fill="#fff"/><rect x="611" y="152" width="14" height="17" fill="#000"/><rect class="on" style="animation-delay:0.61s" x="611" y="152" width="14" height="17" fill="#fff"/><rect x="634" y="149" width="20" height="23" fill="#fff"/><rect x="637" y="152" width="14" height="17" fill="#000"/><rect class="on" style="animation-delay:0.68s" x="637" y="152" width="14" height="17" fill="#fff"/><rect x="660" y="149" width="20" height="23" fill="#fff"/><rect x="663" y="152" width="14" height="17" fill="#000"/><rect class="on" style="animation-delay:0.75s" x="663" y="152" width="14" height="17" fill="#fff"/><rect x="686" y="149" width="20" height="23" fill="#fff"/><rect x="689" y="152" width="14" height="17" fill="#000"/><rect class="on" style="animation-delay:0.82s" x="689" y="152" width="14" height="17" fill="#fff"/><rect x="712" y="149" width="20" height="23" fill="#fff"/><rect x="715" y="152" width="14" height="17" fill="#000"/><rect class="on" style="animation-delay:0.89s" x="715" y="152" width="14" height="17" fill="#fff"/><rect x="738" y="149" width="20" height="23" fill="#fff"/><rect x="741" y="152" width="14" height="17" fill="#000"/><rect class="on" style="animation-delay:0.96s" x="741" y="152" width="14" height="17" fill="#fff"/><rect x="764" y="149" width="20" height="23" fill="#fff"/><rect x="767" y="152" width="14" height="17" fill="#000"/><path d="M803 150h3v3h-3zM806 150h3v3h-3zM809 150h3v3h-3zM800 153h3v3h-3zM812 153h3v3h-3zM800 156h3v3h-3zM809 156h3v3h-3zM812 156h3v3h-3zM800 159h3v3h-3zM806 159h3v3h-3zM812 159h3v3h-3zM800 162h3v3h-3zM803 162h3v3h-3zM812 162h3v3h-3zM800 165h3v3h-3zM812 165h3v3h-3zM803 168h3v3h-3zM806 168h3v3h-3zM809 168h3v3h-3zM821 150h3v3h-3zM824 150h3v3h-3zM827 150h3v3h-3zM818 153h3v3h-3zM830 153h3v3h-3zM818 156h3v3h-3zM830 156h3v3h-3zM821 159h3v3h-3zM824 159h3v3h-3zM827 159h3v3h-3zM830 159h3v3h-3zM830 162h3v3h-3zM830 165h3v3h-3zM821 168h3v3h-3zM824 168h3v3h-3zM827 168h3v3h-3z" fill="#fff"/><path d="M328 184h3v3h-3zM331 184h3v3h-3zM334 184h3v3h-3zM337 184h3v3h-3zM328 187h3v3h-3zM340 187h3v3h-3zM328 190h3v3h-3zM340 190h3v3h-3zM328 193h3v3h-3zM331 193h3v3h-3zM334 193h3v3h-3zM337 193h3v3h-3zM328 196h3v3h-3zM340 196h3v3h-3zM328 199h3v3h-3zM340 199h3v3h-3zM328 202h3v3h-3zM331 202h3v3h-3zM334 202h3v3h-3zM337 202h3v3h-3zM349 184h3v3h-3zM352 184h3v3h-3zM355 184h3v3h-3zM346 187h3v3h-3zM358 187h3v3h-3zM346 190h3v3h-3zM358 190h3v3h-3zM346 193h3v3h-3zM349 193h3v3h-3zM352 193h3v3h-3zM355 193h3v3h-3zM358 193h3v3h-3zM346 196h3v3h-3zM358 196h3v3h-3zM346 199h3v3h-3zM358 199h3v3h-3zM346 202h3v3h-3zM358 202h3v3h-3zM367 184h3v3h-3zM370 184h3v3h-3zM373 184h3v3h-3zM364 187h3v3h-3zM376 187h3v3h-3zM364 190h3v3h-3zM364 193h3v3h-3zM364 196h3v3h-3zM364 199h3v3h-3zM376 199h3v3h-3zM367 202h3v3h-3zM370 202h3v3h-3zM373 202h3v3h-3zM382 184h3v3h-3zM394 184h3v3h-3zM382 187h3v3h-3zM391 187h3v3h-3zM382 190h3v3h-3zM388 190h3v3h-3zM382 193h3v3h-3zM385 193h3v3h-3zM382 196h3v3h-3zM388 196h3v3h-3zM382 199h3v3h-3zM391 199h3v3h-3zM382 202h3v3h-3zM394 202h3v3h-3zM400 184h3v3h-3zM403 184h3v3h-3zM406 184h3v3h-3zM409 184h3v3h-3zM412 184h3v3h-3zM400 187h3v3h-3zM400 190h3v3h-3zM400 193h3v3h-3zM403 193h3v3h-3zM406 193h3v3h-3zM409 193h3v3h-3zM400 196h3v3h-3zM400 199h3v3h-3zM400 202h3v3h-3zM403 202h3v3h-3zM406 202h3v3h-3zM409 202h3v3h-3zM412 202h3v3h-3zM418 184h3v3h-3zM430 184h3v3h-3zM418 187h3v3h-3zM421 187h3v3h-3zM430 187h3v3h-3zM418 190h3v3h-3zM424 190h3v3h-3zM430 190h3v3h-3zM418 193h3v3h-3zM427 193h3v3h-3zM430 193h3v3h-3zM418 196h3v3h-3zM430 196h3v3h-3zM418 199h3v3h-3zM430 199h3v3h-3zM418 202h3v3h-3zM430 202h3v3h-3zM436 184h3v3h-3zM439 184h3v3h-3zM442 184h3v3h-3zM445 184h3v3h-3zM436 187h3v3h-3zM448 187h3v3h-3zM436 190h3v3h-3zM448 190h3v3h-3zM436 193h3v3h-3zM448 193h3v3h-3zM436 196h3v3h-3zM448 196h3v3h-3zM436 199h3v3h-3zM448 199h3v3h-3zM436 202h3v3h-3zM439 202h3v3h-3zM442 202h3v3h-3zM445 202h3v3h-3z" fill="#fff"/><rect x="530" y="183" width="20" height="23" fill="#fff"/><rect x="533" y="186" width="14" height="17" fill="#000"/><rect class="on" style="animation-delay:0.65s" x="533" y="186" width="14" height="17" fill="#fff"/><rect x="556" y="183" width="20" height="23" fill="#fff"/><rect x="559" y="186" width="14" height="17" fill="#000"/><rect class="on" style="animation-delay:0.72s" x="559" y="186" width="14" height="17" fill="#fff"/><rect x="582" y="183" width="20" height="23" fill="#fff"/><rect x="585" y="186" width="14" height="17" fill="#000"/><rect class="on" style="animation-delay:0.79s" x="585" y="186" width="14" height="17" fill="#fff"/><rect x="608" y="183" width="20" height="23" fill="#fff"/><rect x="611" y="186" width="14" height="17" fill="#000"/><rect class="on" style="animation-delay:0.86s" x="611" y="186" width="14" height="17" fill="#fff"/><rect x="634" y="183" width="20" height="23" fill="#fff"/><rect x="637" y="186" width="14" height="17" fill="#000"/><rect class="on" style="animation-delay:0.93s" x="637" y="186" width="14" height="17" fill="#fff"/><rect x="660" y="183" width="20" height="23" fill="#fff"/><rect x="663" y="186" width="14" height="17" fill="#000"/><rect class="on" style="animation-delay:1.00s" x="663" y="186" width="14" height="17" fill="#fff"/><rect x="686" y="183" width="20" height="23" fill="#fff"/><rect x="689" y="186" width="14" height="17" fill="#000"/><rect class="on" style="animation-delay:1.07s" x="689" y="186" width="14" height="17" fill="#fff"/><rect x="712" y="183" width="20" height="23" fill="#fff"/><rect x="715" y="186" width="14" height="17" fill="#000"/><rect x="738" y="183" width="20" height="23" fill="#fff"/><rect x="741" y="186" width="14" height="17" fill="#000"/><rect x="764" y="183" width="20" height="23" fill="#fff"/><rect x="767" y="186" width="14" height="17" fill="#000"/><path d="M803 184h3v3h-3zM806 184h3v3h-3zM809 184h3v3h-3zM800 187h3v3h-3zM812 187h3v3h-3zM800 190h3v3h-3zM809 190h3v3h-3zM812 190h3v3h-3zM800 193h3v3h-3zM806 193h3v3h-3zM812 193h3v3h-3zM800 196h3v3h-3zM803 196h3v3h-3zM812 196h3v3h-3zM800 199h3v3h-3zM812 199h3v3h-3zM803 202h3v3h-3zM806 202h3v3h-3zM809 202h3v3h-3zM818 184h3v3h-3zM821 184h3v3h-3zM824 184h3v3h-3zM827 184h3v3h-3zM830 184h3v3h-3zM830 187h3v3h-3zM827 190h3v3h-3zM824 193h3v3h-3zM821 196h3v3h-3zM821 199h3v3h-3zM821 202h3v3h-3z" fill="#fff"/><path d="M328 218h3v3h-3zM331 218h3v3h-3zM334 218h3v3h-3zM337 218h3v3h-3zM328 221h3v3h-3zM340 221h3v3h-3zM328 224h3v3h-3zM340 224h3v3h-3zM328 227h3v3h-3zM340 227h3v3h-3zM328 230h3v3h-3zM340 230h3v3h-3zM328 233h3v3h-3zM340 233h3v3h-3zM328 236h3v3h-3zM331 236h3v3h-3zM334 236h3v3h-3zM337 236h3v3h-3zM346 218h3v3h-3zM349 218h3v3h-3zM352 218h3v3h-3zM355 218h3v3h-3zM358 218h3v3h-3zM346 221h3v3h-3zM346 224h3v3h-3zM346 227h3v3h-3zM349 227h3v3h-3zM352 227h3v3h-3zM355 227h3v3h-3zM346 230h3v3h-3zM346 233h3v3h-3zM346 236h3v3h-3zM349 236h3v3h-3zM352 236h3v3h-3zM355 236h3v3h-3zM358 236h3v3h-3zM364 218h3v3h-3zM367 218h3v3h-3zM370 218h3v3h-3zM373 218h3v3h-3zM364 221h3v3h-3zM376 221h3v3h-3zM364 224h3v3h-3zM376 224h3v3h-3zM364 227h3v3h-3zM367 227h3v3h-3zM370 227h3v3h-3zM373 227h3v3h-3zM364 230h3v3h-3zM376 230h3v3h-3zM364 233h3v3h-3zM376 233h3v3h-3zM364 236h3v3h-3zM367 236h3v3h-3zM370 236h3v3h-3zM373 236h3v3h-3zM382 218h3v3h-3zM394 218h3v3h-3zM382 221h3v3h-3zM394 221h3v3h-3zM382 224h3v3h-3zM394 224h3v3h-3zM382 227h3v3h-3zM394 227h3v3h-3zM382 230h3v3h-3zM394 230h3v3h-3zM382 233h3v3h-3zM394 233h3v3h-3zM385 236h3v3h-3zM388 236h3v3h-3zM391 236h3v3h-3zM403 218h3v3h-3zM406 218h3v3h-3zM409 218h3v3h-3zM400 221h3v3h-3zM412 221h3v3h-3zM400 224h3v3h-3zM400 227h3v3h-3zM406 227h3v3h-3zM409 227h3v3h-3zM412 227h3v3h-3zM400 230h3v3h-3zM412 230h3v3h-3zM400 233h3v3h-3zM412 233h3v3h-3zM403 236h3v3h-3zM406 236h3v3h-3zM409 236h3v3h-3zM412 236h3v3h-3z" fill="#fff"/><rect x="530" y="217" width="20" height="23" fill="#fff"/><rect x="533" y="220" width="14" height="17" fill="#000"/><rect class="on" style="animation-delay:0.90s" x="533" y="220" width="14" height="17" fill="#fff"/><rect x="556" y="217" width="20" height="23" fill="#fff"/><rect x="559" y="220" width="14" height="17" fill="#000"/><rect class="on" style="animation-delay:0.97s" x="559" y="220" width="14" height="17" fill="#fff"/><rect x="582" y="217" width="20" height="23" fill="#fff"/><rect x="585" y="220" width="14" height="17" fill="#000"/><rect class="on" style="animation-delay:1.04s" x="585" y="220" width="14" height="17" fill="#fff"/><rect x="608" y="217" width="20" height="23" fill="#fff"/><rect x="611" y="220" width="14" height="17" fill="#000"/><rect class="on" style="animation-delay:1.11s" x="611" y="220" width="14" height="17" fill="#fff"/><rect x="634" y="217" width="20" height="23" fill="#fff"/><rect x="637" y="220" width="14" height="17" fill="#000"/><rect class="on" style="animation-delay:1.18s" x="637" y="220" width="14" height="17" fill="#fff"/><rect x="660" y="217" width="20" height="23" fill="#fff"/><rect x="663" y="220" width="14" height="17" fill="#000"/><rect class="on" style="animation-delay:1.25s" x="663" y="220" width="14" height="17" fill="#fff"/><rect x="686" y="217" width="20" height="23" fill="#fff"/><rect x="689" y="220" width="14" height="17" fill="#000"/><rect class="on" style="animation-delay:1.32s" x="689" y="220" width="14" height="17" fill="#fff"/><rect x="712" y="217" width="20" height="23" fill="#fff"/><rect x="715" y="220" width="14" height="17" fill="#000"/><rect class="on" style="animation-delay:1.39s" x="715" y="220" width="14" height="17" fill="#fff"/><rect x="738" y="217" width="20" height="23" fill="#fff"/><rect x="741" y="220" width="14" height="17" fill="#000"/><rect x="764" y="217" width="20" height="23" fill="#fff"/><rect x="767" y="220" width="14" height="17" fill="#000"/><path d="M803 218h3v3h-3zM806 218h3v3h-3zM809 218h3v3h-3zM800 221h3v3h-3zM812 221h3v3h-3zM800 224h3v3h-3zM809 224h3v3h-3zM812 224h3v3h-3zM800 227h3v3h-3zM806 227h3v3h-3zM812 227h3v3h-3zM800 230h3v3h-3zM803 230h3v3h-3zM812 230h3v3h-3zM800 233h3v3h-3zM812 233h3v3h-3zM803 236h3v3h-3zM806 236h3v3h-3zM809 236h3v3h-3zM821 218h3v3h-3zM824 218h3v3h-3zM827 218h3v3h-3zM818 221h3v3h-3zM830 221h3v3h-3zM818 224h3v3h-3zM830 224h3v3h-3zM821 227h3v3h-3zM824 227h3v3h-3zM827 227h3v3h-3zM818 230h3v3h-3zM830 230h3v3h-3zM818 233h3v3h-3zM830 233h3v3h-3zM821 236h3v3h-3zM824 236h3v3h-3zM827 236h3v3h-3z" fill="#fff"/><path d="M328 252h3v3h-3zM340 252h3v3h-3zM328 255h3v3h-3zM340 255h3v3h-3zM328 258h3v3h-3zM340 258h3v3h-3zM328 261h3v3h-3zM340 261h3v3h-3zM328 264h3v3h-3zM340 264h3v3h-3zM328 267h3v3h-3zM340 267h3v3h-3zM331 270h3v3h-3zM334 270h3v3h-3zM337 270h3v3h-3zM346 252h3v3h-3zM349 252h3v3h-3zM352 252h3v3h-3zM355 252h3v3h-3zM358 252h3v3h-3zM352 255h3v3h-3zM352 258h3v3h-3zM352 261h3v3h-3zM352 264h3v3h-3zM352 267h3v3h-3zM346 270h3v3h-3zM349 270h3v3h-3zM352 270h3v3h-3zM355 270h3v3h-3zM358 270h3v3h-3zM394 252h3v3h-3zM394 255h3v3h-3zM391 258h3v3h-3zM388 261h3v3h-3zM385 264h3v3h-3zM382 267h3v3h-3zM382 270h3v3h-3zM418 252h3v3h-3zM430 252h3v3h-3zM418 255h3v3h-3zM430 255h3v3h-3zM418 258h3v3h-3zM430 258h3v3h-3zM418 261h3v3h-3zM430 261h3v3h-3zM418 264h3v3h-3zM430 264h3v3h-3zM418 267h3v3h-3zM430 267h3v3h-3zM421 270h3v3h-3zM424 270h3v3h-3zM427 270h3v3h-3zM436 252h3v3h-3zM448 252h3v3h-3zM436 255h3v3h-3zM448 255h3v3h-3zM439 258h3v3h-3zM445 258h3v3h-3zM442 261h3v3h-3zM439 264h3v3h-3zM445 264h3v3h-3zM436 267h3v3h-3zM448 267h3v3h-3zM436 270h3v3h-3zM448 270h3v3h-3z" fill="#fff"/><rect x="530" y="251" width="20" height="23" fill="#fff"/><rect x="533" y="254" width="14" height="17" fill="#000"/><rect class="on" style="animation-delay:1.15s" x="533" y="254" width="14" height="17" fill="#fff"/><rect x="556" y="251" width="20" height="23" fill="#fff"/><rect x="559" y="254" width="14" height="17" fill="#000"/><rect class="on" style="animation-delay:1.22s" x="559" y="254" width="14" height="17" fill="#fff"/><rect x="582" y="251" width="20" height="23" fill="#fff"/><rect x="585" y="254" width="14" height="17" fill="#000"/><rect class="on" style="animation-delay:1.29s" x="585" y="254" width="14" height="17" fill="#fff"/><rect x="608" y="251" width="20" height="23" fill="#fff"/><rect x="611" y="254" width="14" height="17" fill="#000"/><rect class="on" style="animation-delay:1.36s" x="611" y="254" width="14" height="17" fill="#fff"/><rect x="634" y="251" width="20" height="23" fill="#fff"/><rect x="637" y="254" width="14" height="17" fill="#000"/><rect class="on" style="animation-delay:1.43s" x="637" y="254" width="14" height="17" fill="#fff"/><rect x="660" y="251" width="20" height="23" fill="#fff"/><rect x="663" y="254" width="14" height="17" fill="#000"/><rect class="on" style="animation-delay:1.50s" x="663" y="254" width="14" height="17" fill="#fff"/><rect x="686" y="251" width="20" height="23" fill="#fff"/><rect x="689" y="254" width="14" height="17" fill="#000"/><rect x="712" y="251" width="20" height="23" fill="#fff"/><rect x="715" y="254" width="14" height="17" fill="#000"/><rect x="738" y="251" width="20" height="23" fill="#fff"/><rect x="741" y="254" width="14" height="17" fill="#000"/><rect x="764" y="251" width="20" height="23" fill="#fff"/><rect x="767" y="254" width="14" height="17" fill="#000"/><path d="M803 252h3v3h-3zM806 252h3v3h-3zM809 252h3v3h-3zM800 255h3v3h-3zM812 255h3v3h-3zM800 258h3v3h-3zM809 258h3v3h-3zM812 258h3v3h-3zM800 261h3v3h-3zM806 261h3v3h-3zM812 261h3v3h-3zM800 264h3v3h-3zM803 264h3v3h-3zM812 264h3v3h-3zM800 267h3v3h-3zM812 267h3v3h-3zM803 270h3v3h-3zM806 270h3v3h-3zM809 270h3v3h-3zM821 252h3v3h-3zM824 252h3v3h-3zM827 252h3v3h-3zM818 255h3v3h-3zM818 258h3v3h-3zM818 261h3v3h-3zM821 261h3v3h-3zM824 261h3v3h-3zM827 261h3v3h-3zM818 264h3v3h-3zM830 264h3v3h-3zM818 267h3v3h-3zM830 267h3v3h-3zM821 270h3v3h-3zM824 270h3v3h-3zM827 270h3v3h-3z" fill="#fff"/><path d="M331 286h3v3h-3zM334 286h3v3h-3zM337 286h3v3h-3zM328 289h3v3h-3zM340 289h3v3h-3zM328 292h3v3h-3zM328 295h3v3h-3zM328 298h3v3h-3zM328 301h3v3h-3zM340 301h3v3h-3zM331 304h3v3h-3zM334 304h3v3h-3zM337 304h3v3h-3zM349 286h3v3h-3zM352 286h3v3h-3zM355 286h3v3h-3zM346 289h3v3h-3zM358 289h3v3h-3zM346 292h3v3h-3zM358 292h3v3h-3zM346 295h3v3h-3zM349 295h3v3h-3zM352 295h3v3h-3zM355 295h3v3h-3zM358 295h3v3h-3zM346 298h3v3h-3zM358 298h3v3h-3zM346 301h3v3h-3zM358 301h3v3h-3zM346 304h3v3h-3zM358 304h3v3h-3zM364 286h3v3h-3zM367 286h3v3h-3zM370 286h3v3h-3zM373 286h3v3h-3zM376 286h3v3h-3zM364 289h3v3h-3zM364 292h3v3h-3zM364 295h3v3h-3zM367 295h3v3h-3zM370 295h3v3h-3zM373 295h3v3h-3zM364 298h3v3h-3zM364 301h3v3h-3zM364 304h3v3h-3zM382 286h3v3h-3zM385 286h3v3h-3zM388 286h3v3h-3zM391 286h3v3h-3zM394 286h3v3h-3zM382 289h3v3h-3zM382 292h3v3h-3zM382 295h3v3h-3zM385 295h3v3h-3zM388 295h3v3h-3zM391 295h3v3h-3zM382 298h3v3h-3zM382 301h3v3h-3zM382 304h3v3h-3zM400 286h3v3h-3zM403 286h3v3h-3zM406 286h3v3h-3zM409 286h3v3h-3zM412 286h3v3h-3zM400 289h3v3h-3zM400 292h3v3h-3zM400 295h3v3h-3zM403 295h3v3h-3zM406 295h3v3h-3zM409 295h3v3h-3zM400 298h3v3h-3zM400 301h3v3h-3zM400 304h3v3h-3zM403 304h3v3h-3zM406 304h3v3h-3zM409 304h3v3h-3zM412 304h3v3h-3zM418 286h3v3h-3zM421 286h3v3h-3zM424 286h3v3h-3zM427 286h3v3h-3zM430 286h3v3h-3zM424 289h3v3h-3zM424 292h3v3h-3zM424 295h3v3h-3zM424 298h3v3h-3zM424 301h3v3h-3zM418 304h3v3h-3zM421 304h3v3h-3zM424 304h3v3h-3zM427 304h3v3h-3zM430 304h3v3h-3zM436 286h3v3h-3zM448 286h3v3h-3zM436 289h3v3h-3zM439 289h3v3h-3zM448 289h3v3h-3zM436 292h3v3h-3zM442 292h3v3h-3zM448 292h3v3h-3zM436 295h3v3h-3zM445 295h3v3h-3zM448 295h3v3h-3zM436 298h3v3h-3zM448 298h3v3h-3zM436 301h3v3h-3zM448 301h3v3h-3zM436 304h3v3h-3zM448 304h3v3h-3zM454 286h3v3h-3zM457 286h3v3h-3zM460 286h3v3h-3zM463 286h3v3h-3zM466 286h3v3h-3zM454 289h3v3h-3zM454 292h3v3h-3zM454 295h3v3h-3zM457 295h3v3h-3zM460 295h3v3h-3zM463 295h3v3h-3zM454 298h3v3h-3zM454 301h3v3h-3zM454 304h3v3h-3zM457 304h3v3h-3zM460 304h3v3h-3zM463 304h3v3h-3zM466 304h3v3h-3z" fill="#fff"/><rect x="530" y="285" width="20" height="23" fill="#fff"/><rect x="533" y="288" width="14" height="17" fill="#000"/><rect class="on" style="animation-delay:1.40s" x="533" y="288" width="14" height="17" fill="#fff"/><rect x="556" y="285" width="20" height="23" fill="#fff"/><rect x="559" y="288" width="14" height="17" fill="#000"/><rect class="on" style="animation-delay:1.47s" x="559" y="288" width="14" height="17" fill="#fff"/><rect x="582" y="285" width="20" height="23" fill="#fff"/><rect x="585" y="288" width="14" height="17" fill="#000"/><rect class="on" style="animation-delay:1.54s" x="585" y="288" width="14" height="17" fill="#fff"/><rect x="608" y="285" width="20" height="23" fill="#fff"/><rect x="611" y="288" width="14" height="17" fill="#000"/><rect class="on" style="animation-delay:1.61s" x="611" y="288" width="14" height="17" fill="#fff"/><rect x="634" y="285" width="20" height="23" fill="#fff"/><rect x="637" y="288" width="14" height="17" fill="#000"/><rect class="on" style="animation-delay:1.68s" x="637" y="288" width="14" height="17" fill="#fff"/><rect x="660" y="285" width="20" height="23" fill="#fff"/><rect x="663" y="288" width="14" height="17" fill="#000"/><rect class="on" style="animation-delay:1.75s" x="663" y="288" width="14" height="17" fill="#fff"/><rect x="686" y="285" width="20" height="23" fill="#fff"/><rect x="689" y="288" width="14" height="17" fill="#000"/><rect class="on" style="animation-delay:1.82s" x="689" y="288" width="14" height="17" fill="#fff"/><rect x="712" y="285" width="20" height="23" fill="#fff"/><rect x="715" y="288" width="14" height="17" fill="#000"/><rect class="on" style="animation-delay:1.89s" x="715" y="288" width="14" height="17" fill="#fff"/><rect x="738" y="285" width="20" height="23" fill="#fff"/><rect x="741" y="288" width="14" height="17" fill="#000"/><rect class="on" style="animation-delay:1.96s" x="741" y="288" width="14" height="17" fill="#fff"/><rect x="764" y="285" width="20" height="23" fill="#fff"/><rect x="767" y="288" width="14" height="17" fill="#000"/><rect class="on" style="animation-delay:2.03s" x="767" y="288" width="14" height="17" fill="#fff"/><path d="M806 286h3v3h-3zM803 289h3v3h-3zM806 289h3v3h-3zM806 292h3v3h-3zM806 295h3v3h-3zM806 298h3v3h-3zM806 301h3v3h-3zM803 304h3v3h-3zM806 304h3v3h-3zM809 304h3v3h-3zM821 286h3v3h-3zM824 286h3v3h-3zM827 286h3v3h-3zM818 289h3v3h-3zM830 289h3v3h-3zM818 292h3v3h-3zM827 292h3v3h-3zM830 292h3v3h-3zM818 295h3v3h-3zM824 295h3v3h-3zM830 295h3v3h-3zM818 298h3v3h-3zM821 298h3v3h-3zM830 298h3v3h-3zM818 301h3v3h-3zM830 301h3v3h-3zM821 304h3v3h-3zM824 304h3v3h-3zM827 304h3v3h-3z" fill="#fff"/><path d="M328 320h3v3h-3zM331 320h3v3h-3zM334 320h3v3h-3zM337 320h3v3h-3zM328 323h3v3h-3zM340 323h3v3h-3zM328 326h3v3h-3zM340 326h3v3h-3zM328 329h3v3h-3zM331 329h3v3h-3zM334 329h3v3h-3zM337 329h3v3h-3zM328 332h3v3h-3zM340 332h3v3h-3zM328 335h3v3h-3zM340 335h3v3h-3zM328 338h3v3h-3zM331 338h3v3h-3zM334 338h3v3h-3zM337 338h3v3h-3zM346 320h3v3h-3zM349 320h3v3h-3zM352 320h3v3h-3zM355 320h3v3h-3zM346 323h3v3h-3zM358 323h3v3h-3zM346 326h3v3h-3zM358 326h3v3h-3zM346 329h3v3h-3zM349 329h3v3h-3zM352 329h3v3h-3zM355 329h3v3h-3zM346 332h3v3h-3zM346 335h3v3h-3zM346 338h3v3h-3zM364 320h3v3h-3zM376 320h3v3h-3zM364 323h3v3h-3zM367 323h3v3h-3zM373 323h3v3h-3zM376 323h3v3h-3zM364 326h3v3h-3zM370 326h3v3h-3zM376 326h3v3h-3zM364 329h3v3h-3zM370 329h3v3h-3zM376 329h3v3h-3zM364 332h3v3h-3zM376 332h3v3h-3zM364 335h3v3h-3zM376 335h3v3h-3zM364 338h3v3h-3zM376 338h3v3h-3z" fill="#fff"/><rect x="530" y="319" width="20" height="23" fill="#fff"/><rect x="533" y="322" width="14" height="17" fill="#000"/><rect class="on" style="animation-delay:1.65s" x="533" y="322" width="14" height="17" fill="#fff"/><rect x="556" y="319" width="20" height="23" fill="#fff"/><rect x="559" y="322" width="14" height="17" fill="#000"/><rect class="on" style="animation-delay:1.72s" x="559" y="322" width="14" height="17" fill="#fff"/><rect x="582" y="319" width="20" height="23" fill="#fff"/><rect x="585" y="322" width="14" height="17" fill="#000"/><rect class="on" style="animation-delay:1.79s" x="585" y="322" width="14" height="17" fill="#fff"/><rect x="608" y="319" width="20" height="23" fill="#fff"/><rect x="611" y="322" width="14" height="17" fill="#000"/><rect class="on" style="animation-delay:1.86s" x="611" y="322" width="14" height="17" fill="#fff"/><rect x="634" y="319" width="20" height="23" fill="#fff"/><rect x="637" y="322" width="14" height="17" fill="#000"/><rect class="on" style="animation-delay:1.93s" x="637" y="322" width="14" height="17" fill="#fff"/><rect x="660" y="319" width="20" height="23" fill="#fff"/><rect x="663" y="322" width="14" height="17" fill="#000"/><rect class="on" style="animation-delay:2.00s" x="663" y="322" width="14" height="17" fill="#fff"/><rect x="686" y="319" width="20" height="23" fill="#fff"/><rect x="689" y="322" width="14" height="17" fill="#000"/><rect class="on" style="animation-delay:2.07s" x="689" y="322" width="14" height="17" fill="#fff"/><rect x="712" y="319" width="20" height="23" fill="#fff"/><rect x="715" y="322" width="14" height="17" fill="#000"/><rect class="on" style="animation-delay:2.14s" x="715" y="322" width="14" height="17" fill="#fff"/><rect x="738" y="319" width="20" height="23" fill="#fff"/><rect x="741" y="322" width="14" height="17" fill="#000"/><rect class="on" style="animation-delay:2.21s" x="741" y="322" width="14" height="17" fill="#fff"/><rect x="764" y="319" width="20" height="23" fill="#fff"/><rect x="767" y="322" width="14" height="17" fill="#000"/><rect class="on" style="animation-delay:2.28s" x="767" y="322" width="14" height="17" fill="#fff"/><path d="M806 320h3v3h-3zM803 323h3v3h-3zM806 323h3v3h-3zM806 326h3v3h-3zM806 329h3v3h-3zM806 332h3v3h-3zM806 335h3v3h-3zM803 338h3v3h-3zM806 338h3v3h-3zM809 338h3v3h-3zM821 320h3v3h-3zM824 320h3v3h-3zM827 320h3v3h-3zM818 323h3v3h-3zM830 323h3v3h-3zM818 326h3v3h-3zM827 326h3v3h-3zM830 326h3v3h-3zM818 329h3v3h-3zM824 329h3v3h-3zM830 329h3v3h-3zM818 332h3v3h-3zM821 332h3v3h-3zM830 332h3v3h-3zM818 335h3v3h-3zM830 335h3v3h-3zM821 338h3v3h-3zM824 338h3v3h-3zM827 338h3v3h-3z" fill="#fff"/><rect x="735" y="368" width="129" height="33" fill="#fff" class="bl"/><path d="M747 374h3v3h-3zM750 374h3v3h-3zM753 374h3v3h-3zM756 374h3v3h-3zM747 377h3v3h-3zM759 377h3v3h-3zM747 380h3v3h-3zM759 380h3v3h-3zM747 383h3v3h-3zM750 383h3v3h-3zM753 383h3v3h-3zM756 383h3v3h-3zM747 386h3v3h-3zM753 386h3v3h-3zM747 389h3v3h-3zM756 389h3v3h-3zM747 392h3v3h-3zM759 392h3v3h-3zM765 374h3v3h-3zM768 374h3v3h-3zM771 374h3v3h-3zM774 374h3v3h-3zM777 374h3v3h-3zM765 377h3v3h-3zM765 380h3v3h-3zM765 383h3v3h-3zM768 383h3v3h-3zM771 383h3v3h-3zM774 383h3v3h-3zM765 386h3v3h-3zM765 389h3v3h-3zM765 392h3v3h-3zM768 392h3v3h-3zM771 392h3v3h-3zM774 392h3v3h-3zM777 392h3v3h-3zM786 374h3v3h-3zM789 374h3v3h-3zM792 374h3v3h-3zM783 377h3v3h-3zM795 377h3v3h-3zM783 380h3v3h-3zM795 380h3v3h-3zM783 383h3v3h-3zM786 383h3v3h-3zM789 383h3v3h-3zM792 383h3v3h-3zM795 383h3v3h-3zM783 386h3v3h-3zM795 386h3v3h-3zM783 389h3v3h-3zM795 389h3v3h-3zM783 392h3v3h-3zM795 392h3v3h-3zM801 374h3v3h-3zM804 374h3v3h-3zM807 374h3v3h-3zM810 374h3v3h-3zM801 377h3v3h-3zM813 377h3v3h-3zM801 380h3v3h-3zM813 380h3v3h-3zM801 383h3v3h-3zM813 383h3v3h-3zM801 386h3v3h-3zM813 386h3v3h-3zM801 389h3v3h-3zM813 389h3v3h-3zM801 392h3v3h-3zM804 392h3v3h-3zM807 392h3v3h-3zM810 392h3v3h-3zM819 374h3v3h-3zM831 374h3v3h-3zM819 377h3v3h-3zM831 377h3v3h-3zM822 380h3v3h-3zM828 380h3v3h-3zM825 383h3v3h-3zM825 386h3v3h-3zM825 389h3v3h-3zM825 392h3v3h-3zM843 374h3v3h-3zM843 377h3v3h-3zM843 380h3v3h-3zM843 383h3v3h-3zM843 386h3v3h-3zM843 392h3v3h-3z" fill="#000"/></svg>